<svg xmlns="http://www.w3.org/2000/svg" width="19" height="19" viewBox="0 0 19 19">
  <g id="Group_734" data-name="Group 734" transform="translate(0.4)">
    <circle id="Ellipse_3" data-name="Ellipse 3" cx="9.5" cy="9.5" r="9.5" transform="translate(-0.4 0)" fill="#0097ef"/>
    <path id="Path_160" data-name="Path 160" d="M10.992,3.485A6.835,6.835,0,0,0,17.874-3.4c0-.1,0-.209-.007-.313a4.923,4.923,0,0,0,1.207-1.252,4.834,4.834,0,0,1-1.389.38,2.427,2.427,0,0,0,1.063-1.338,4.848,4.848,0,0,1-1.536.587,2.422,2.422,0,0,0-1.763-.762,2.433,2.433,0,0,0-2.421,2.421,2.422,2.422,0,0,0,.063.547A6.87,6.87,0,0,1,8.105-5.653a2.43,2.43,0,0,0,.749,3.229,2.4,2.4,0,0,1-1.1-.3V-2.7A2.427,2.427,0,0,0,9.7-.325,2.416,2.416,0,0,1,8.6-.283a2.427,2.427,0,0,0,2.26,1.68,4.856,4.856,0,0,1-3,1.037A4.951,4.951,0,0,1,7.285,2.4a6.85,6.85,0,0,0,3.708,1.085" transform="translate(-3.979 10.883)" fill="#fff"/>
  </g>
</svg>
