<svg id="Group_740" data-name="Group 740" xmlns="http://www.w3.org/2000/svg" width="19" height="19" viewBox="0 0 19 19">
  <path id="Path_253" data-name="Path 253" d="M9.5,0A9.5,9.5,0,1,1,0,9.5,9.5,9.5,0,0,1,9.5,0Z" transform="translate(0)" fill="#e61879"/>
  <g id="Group_739" data-name="Group 739" transform="translate(4.208 3.765)">
    <path id="Path_252" data-name="Path 252" d="M5.814-254.952c1.552,0,1.736.006,2.349.034a3.217,3.217,0,0,1,1.08.2,1.8,1.8,0,0,1,.669.435,1.8,1.8,0,0,1,.435.669,3.218,3.218,0,0,1,.2,1.08c.028.613.034.8.034,2.349s-.006,1.736-.034,2.349a3.218,3.218,0,0,1-.2,1.08,1.8,1.8,0,0,1-.435.669,1.8,1.8,0,0,1-.669.435,3.217,3.217,0,0,1-1.08.2c-.613.028-.8.034-2.349.034s-1.736-.006-2.349-.034a3.217,3.217,0,0,1-1.08-.2,1.8,1.8,0,0,1-.669-.435,1.8,1.8,0,0,1-.435-.669,3.218,3.218,0,0,1-.2-1.08c-.028-.613-.034-.8-.034-2.35s.006-1.736.034-2.349a3.218,3.218,0,0,1,.2-1.08,1.8,1.8,0,0,1,.435-.669,1.8,1.8,0,0,1,.669-.435,3.217,3.217,0,0,1,1.08-.2c.613-.028.8-.034,2.349-.034m0-1.048c-1.579,0-1.777.007-2.4.035a4.266,4.266,0,0,0-1.411.27,2.849,2.849,0,0,0-1.03.671,2.851,2.851,0,0,0-.671,1.03,4.268,4.268,0,0,0-.27,1.411c-.028.62-.035.818-.035,2.4s.007,1.777.035,2.4a4.268,4.268,0,0,0,.27,1.411,2.85,2.85,0,0,0,.671,1.03,2.85,2.85,0,0,0,1.03.671,4.268,4.268,0,0,0,1.411.27c.62.028.818.035,2.4.035s1.777-.007,2.4-.035a4.268,4.268,0,0,0,1.411-.27,2.85,2.85,0,0,0,1.03-.671,2.85,2.85,0,0,0,.671-1.03,4.268,4.268,0,0,0,.27-1.411c.028-.62.035-.818.035-2.4s-.007-1.777-.035-2.4a4.269,4.269,0,0,0-.27-1.411,2.851,2.851,0,0,0-.671-1.03,2.849,2.849,0,0,0-1.03-.671,4.266,4.266,0,0,0-1.411-.27C7.591-255.993,7.393-256,5.814-256Zm0,2.829a2.986,2.986,0,0,0-2.986,2.986A2.986,2.986,0,0,0,5.814-247.2,2.986,2.986,0,0,0,8.8-250.186,2.986,2.986,0,0,0,5.814-253.171Zm0,4.924a1.938,1.938,0,0,1-1.938-1.938,1.938,1.938,0,0,1,1.938-1.938,1.938,1.938,0,0,1,1.938,1.938A1.938,1.938,0,0,1,5.814-248.248Zm3.8-5.042a.7.7,0,0,1-.7.7.7.7,0,0,1-.7-.7.7.7,0,0,1,.7-.7A.7.7,0,0,1,9.616-253.289Z" transform="translate(0 256)" fill="#fff"/>
  </g>
</svg>
