<svg xmlns="http://www.w3.org/2000/svg" width="19" height="19" viewBox="0 0 19 19">
  <g id="Group_731" data-name="Group 731" transform="translate(-0.2)">
    <circle id="Ellipse_2" data-name="Ellipse 2" cx="9.5" cy="9.5" r="9.5" transform="translate(0.2 0)"/>
    <g id="Group_729" data-name="Group 729" transform="translate(4.042 4.001)">
      <path id="Path_249" data-name="Path 249" d="M234.154-1623.619a4.381,4.381,0,0,0,2.556.817v-1.833a2.608,2.608,0,0,1-.537-.056v1.443a4.382,4.382,0,0,1-2.556-.817v3.741a3.389,3.389,0,0,1-3.39,3.388,3.375,3.375,0,0,1-1.887-.573,3.379,3.379,0,0,0,2.424,1.02,3.389,3.389,0,0,0,3.39-3.388v-3.74Zm.662-1.849a2.555,2.555,0,0,1-.662-1.5v-.236h-.509A2.567,2.567,0,0,0,234.816-1625.468Zm-5.292,6.523a1.543,1.543,0,0,1-.316-.938,1.55,1.55,0,0,1,1.551-1.55,1.561,1.561,0,0,1,.47.073v-1.874a3.428,3.428,0,0,0-.537-.031v1.459a1.539,1.539,0,0,0-.471-.073,1.55,1.55,0,0,0-1.551,1.55A1.55,1.55,0,0,0,229.524-1618.946Z" transform="translate(-226.837 1627.646)" fill="#ed1c52" fill-rule="evenodd"/>
      <path id="Path_250" data-name="Path 250" d="M87.783-1624.065a4.382,4.382,0,0,0,2.556.817v-1.443a2.569,2.569,0,0,1-1.357-.778,2.567,2.567,0,0,1-1.171-1.732H86.475v7.321a1.55,1.55,0,0,1-1.551,1.545,1.548,1.548,0,0,1-1.234-.612,1.55,1.55,0,0,1-.853-1.385,1.55,1.55,0,0,1,1.551-1.55,1.545,1.545,0,0,1,.471.073v-1.459a3.389,3.389,0,0,0-3.318,3.387,3.376,3.376,0,0,0,.966,2.369,3.376,3.376,0,0,0,1.887.573,3.389,3.389,0,0,0,3.39-3.388Z" transform="translate(-81.003 1627.646)" fill="#fff" fill-rule="evenodd"/>
      <path id="Path_251" data-name="Path 251" d="M9.336-1692.044v-.39a2.556,2.556,0,0,1-1.357-.387A2.565,2.565,0,0,0,9.336-1692.044Zm-2.528-2.509c-.012-.07-.022-.14-.028-.21V-1695H4.935v7.321a1.55,1.55,0,0,1-1.551,1.545,1.543,1.543,0,0,1-.7-.165,1.548,1.548,0,0,0,1.234.612,1.551,1.551,0,0,0,1.551-1.545v-7.321Zm-2.953,3.934v-.415a3.407,3.407,0,0,0-.465-.032A3.389,3.389,0,0,0,0-1687.679a3.384,3.384,0,0,0,1.5,2.815,3.376,3.376,0,0,1-.966-2.369A3.389,3.389,0,0,1,3.855-1690.62Z" transform="translate(0 1695)" fill="#69c8d0" fill-rule="evenodd"/>
    </g>
  </g>
</svg>
