<svg xmlns="http://www.w3.org/2000/svg" width="19" height="19" viewBox="0 0 19 19">
  <g id="Group_736" data-name="Group 736" transform="translate(-0.266)">
    <circle id="Ellipse_1" data-name="Ellipse 1" cx="9.5" cy="9.5" r="9.5" transform="translate(0.266 0)" fill="#4857f0"/>
    <path id="Path_168" data-name="Path 168" d="M9.165,1.1a8.928,8.928,0,0,0-2.2-.683.033.033,0,0,0-.035.017,6.219,6.219,0,0,0-.274.564,8.242,8.242,0,0,0-2.475,0A5.7,5.7,0,0,0,3.9.429.035.035,0,0,0,3.862.412a8.9,8.9,0,0,0-2.2.683.032.032,0,0,0-.015.012A9.137,9.137,0,0,0,.045,7.27.037.037,0,0,0,.059,7.3a8.978,8.978,0,0,0,2.7,1.367A.035.035,0,0,0,2.8,8.65a6.417,6.417,0,0,0,.553-.9A.034.034,0,0,0,3.334,7.7a5.912,5.912,0,0,1-.845-.4.035.035,0,0,1,0-.058c.057-.043.114-.087.168-.131a.033.033,0,0,1,.035,0,6.4,6.4,0,0,0,5.441,0,.033.033,0,0,1,.035,0c.054.045.111.089.168.132a.035.035,0,0,1,0,.058,5.548,5.548,0,0,1-.845.4.035.035,0,0,0-.018.048,7.2,7.2,0,0,0,.553.9.034.034,0,0,0,.038.013A8.948,8.948,0,0,0,10.766,7.3a.035.035,0,0,0,.014-.025,9.077,9.077,0,0,0-1.6-6.162A.028.028,0,0,0,9.165,1.1ZM3.618,6.04a1.041,1.041,0,0,1-.973-1.091,1.035,1.035,0,0,1,.973-1.091,1.029,1.029,0,0,1,.973,1.091A1.035,1.035,0,0,1,3.618,6.04Zm3.6,0a1.041,1.041,0,0,1-.973-1.091,1.035,1.035,0,0,1,.973-1.091,1.029,1.029,0,0,1,.973,1.091A1.032,1.032,0,0,1,7.215,6.04Z" transform="translate(4.102 4.977)" fill="#fff"/>
  </g>
</svg>
