<svg id="Group_214" data-name="Group 214" xmlns="http://www.w3.org/2000/svg" width="30.303" height="30.303" viewBox="0 0 30.303 30.303">
  <g id="Group_213" data-name="Group 213" transform="translate(0 0)">
    <path id="Path_166" data-name="Path 166" d="M30.3-82.848A15.152,15.152,0,0,1,15.152-67.7,15.152,15.152,0,0,1,0-82.848,15.151,15.151,0,0,1,15.152-98,15.151,15.151,0,0,1,30.3-82.848" transform="translate(0 98)" fill="#ff4500"/>
    <path id="Path_167" data-name="Path 167" d="M17.78-71.182a1.407,1.407,0,0,0,1.4,1.41,1.407,1.407,0,0,0,1.4-1.41,1.407,1.407,0,0,0-1.4-1.41,1.407,1.407,0,0,0-1.4,1.41m8.235,3.889a.325.325,0,0,0-.02-.457.322.322,0,0,0-.325-.067,5.457,5.457,0,0,1-6.409,0,.322.322,0,0,0-.411.2.324.324,0,0,0,.066.326,5.988,5.988,0,0,0,7.1,0m-1.672-3.889a1.407,1.407,0,0,0,1.4,1.41,1.407,1.407,0,0,0,1.4-1.41,1.407,1.407,0,0,0-1.4-1.41,1.407,1.407,0,0,0-1.4,1.41m-1.164-9.954a.43.43,0,0,1,.512-.324l3.51.78a1.388,1.388,0,0,1,1.092-.749,1.389,1.389,0,0,1,1.524,1.243,1.392,1.392,0,0,1-1.238,1.53A1.39,1.39,0,0,1,27.054-79.9l-3.186-.707L22.79-75.951a9.97,9.97,0,0,1,5.779,1.917,2.024,2.024,0,0,1,.281-.241,2.043,2.043,0,0,1,2.856.489,2.092,2.092,0,0,1,.108.193,2.13,2.13,0,0,1-.954,2.849,4.978,4.978,0,0,1-2.127,4.657,10.459,10.459,0,0,1-6.267,1.9,10.459,10.459,0,0,1-6.267-1.9,4.978,4.978,0,0,1-2.127-4.657,2.139,2.139,0,0,1-.192-.109,2.131,2.131,0,0,1-.653-2.933,2.046,2.046,0,0,1,.24-.282,2.043,2.043,0,0,1,2.9.035,9.97,9.97,0,0,1,5.615-1.914Z" transform="translate(-7.314 87.98)" fill="#fff"/>
  </g>
</svg>
