<?xml version="1.0" encoding="UTF-8" standalone="no"?>
<!DOCTYPE svg PUBLIC "-//W3C//DTD SVG 1.1//EN" "http://www.w3.org/Graphics/SVG/1.1/DTD/svg11.dtd">
<svg width="100%" height="100%" viewBox="0 0 223 223" version="1.1" xmlns="http://www.w3.org/2000/svg" xmlns:xlink="http://www.w3.org/1999/xlink" xml:space="preserve" xmlns:serif="http://www.serif.com/" style="fill-rule:evenodd;clip-rule:evenodd;stroke-linejoin:round;stroke-miterlimit:2;">
    <g transform="matrix(1,0,0,1,-1556.14,-923.953)">
        <g transform="matrix(1,0,0,1,776.156,0)">
            <g transform="matrix(0.300018,0.300018,-0.300018,0.300018,828.86,-139.098)">
                <path d="M2074.56,1730.48L2046.09,1730.48L2046.09,1668.04L1875.26,1668.04L1875.26,1838.87L1937.69,1838.87L1937.69,1867.34L1875.26,1867.34L1875.26,2038.17L2046.09,2038.17L2046.09,1975.73L2074.56,1975.73L2074.56,2038.17L2245.39,2038.17L2245.39,1867.34L2182.95,1867.34L2182.95,1838.87L2245.39,1838.87L2245.39,1668.04L2074.56,1668.04L2074.56,1730.48ZM2016.28,1897.14L1905.06,1897.14L1905.06,2008.37L2016.28,2008.37L2016.28,1897.14ZM2215.59,1897.14L2104.36,1897.14L2104.36,2008.37L2215.59,2008.37L2215.59,1897.14ZM2189.24,1923.49L2130.71,1923.49L2130.71,1982.02L2189.24,1982.02L2189.24,1923.49ZM2074.56,1776.43L2046.09,1776.43L2046.09,1838.87L1983.65,1838.87L1983.65,1867.34L2046.09,1867.34L2046.09,1929.78L2074.56,1929.78L2074.56,1867.34L2137,1867.34L2137,1838.87L2074.56,1838.87L2074.56,1776.43ZM2016.28,1697.84L1905.06,1697.84L1905.06,1809.06L2016.28,1809.06L2016.28,1697.84ZM2215.59,1697.84L2104.36,1697.84L2104.36,1809.06L2215.59,1809.06L2215.59,1697.84ZM1989.94,1724.19L1931.41,1724.19L1931.41,1782.72L1989.94,1782.72L1989.94,1724.19Z" style="fill:white;"/>
            </g>
        </g>
    </g>
</svg>
