<svg xmlns="http://www.w3.org/2000/svg" width="92.984" height="23.894" viewBox="0 0 92.984 23.894">
  <g id="Group_25" data-name="Group 25" transform="translate(0 23.894)">
    <path id="Path_97" data-name="Path 97" d="M25.7-.287h4.466V-23.894H25.7Z" fill="#fff"/>
    <path id="Path_98" data-name="Path 98" d="M60.423-17.938v-5.956H55.849v5.956h-4v3.955h4v9.866a4.117,4.117,0,0,0,1.206,2.911A4.117,4.117,0,0,0,59.965,0h4.46V-4.574H61.8a1.372,1.372,0,0,1-.97-.4,1.372,1.372,0,0,1-.4-.97v-8.036h4v-3.955Z" fill="#fff" fill-rule="evenodd"/>
    <path id="Path_99" data-name="Path 99" d="M75.476-17.938v-5.956H70.9v5.956h-4v3.955h4v9.866a4.116,4.116,0,0,0,1.206,2.911A4.116,4.116,0,0,0,75.018,0h4.46V-4.574h-2.63a1.373,1.373,0,0,1-.97-.4,1.373,1.373,0,0,1-.4-.97v-8.036h4v-3.955Z" fill="#fff" fill-rule="evenodd"/>
    <path id="Path_100" data-name="Path 100" d="M36.763-7.823A5.142,5.142,0,0,0,41.57-3.279,4.726,4.726,0,0,0,45.526-5.6h4.33A8.939,8.939,0,0,1,41.57,0a8.935,8.935,0,0,1-8.931-8.931,8.935,8.935,0,0,1,8.931-8.931A8.935,8.935,0,0,1,50.5-8.931a9,9,0,0,1-.068,1.108Zm9.278-3.424H37.1a4.928,4.928,0,0,1,4.472-3.336A4.928,4.928,0,0,1,46.041-11.247Z" fill="#fff" fill-rule="evenodd"/>
    <path id="Path_101" data-name="Path 101" d="M23.225-8A11.959,11.959,0,0,1,11.947,0,11.952,11.952,0,0,1,0-11.947,11.953,11.953,0,0,1,11.947-23.894a11.959,11.959,0,0,1,11.278,8H18.079a7.083,7.083,0,0,0-6.132-3.693,7.416,7.416,0,0,0-7.162,7.64,7.416,7.416,0,0,0,7.162,7.64A7.083,7.083,0,0,0,18.079-8Z" fill="#fff" fill-rule="evenodd"/>
    <path id="Path_102" data-name="Path 102" d="M86.418-.1H81.952V-17.862h4.466v3.1c0-2.344,1.9-3.1,4.243-3.1h2.322v4.4H91a4.809,4.809,0,0,0-3.4,1.408,4.808,4.808,0,0,0-1.18,1.935Z" fill="#fff"/>
  </g>
</svg>
