<?xml version="1.0" encoding="UTF-8" standalone="no"?>
<!DOCTYPE svg PUBLIC "-//W3C//DTD SVG 1.1//EN" "http://www.w3.org/Graphics/SVG/1.1/DTD/svg11.dtd">
<svg width="100%" height="100%" viewBox="0 0 388 100" version="1.1" xmlns="http://www.w3.org/2000/svg" xmlns:xlink="http://www.w3.org/1999/xlink" xml:space="preserve" xmlns:serif="http://www.serif.com/" style="fill-rule:evenodd;clip-rule:evenodd;stroke-linejoin:round;stroke-miterlimit:2;">
    <g transform="matrix(1,0,0,1,-1816.74,-993.573)">
        <g transform="matrix(1,0,0,1,776.156,0)">
            <g transform="matrix(0.78359,0,0,0.78359,638.016,516.452)">
                <g transform="matrix(1.62844,0,0,1.62844,-1774.04,-436.534)">
                    <rect x="1488.81" y="641.979" width="14.583" height="77.083" style="fill:white;fill-rule:nonzero;"/>
                </g>
                <g transform="matrix(1.21614,0,0,1.21614,-1149.52,-159.069)">
                    <path d="M1631.85,657.514L1631.85,631.472L1611.85,631.472L1611.85,657.514L1594.35,657.514L1594.35,674.806L1611.85,674.806L1611.85,717.943C1611.85,722.717 1613.74,727.295 1617.12,730.671C1620.49,734.047 1625.07,735.943 1629.85,735.943C1639.46,735.943 1649.35,735.943 1649.35,735.943L1649.35,715.943L1637.85,715.943C1636.26,715.943 1634.73,715.311 1633.6,714.186C1632.48,713.061 1631.85,711.534 1631.85,709.943L1631.85,674.806L1649.35,674.806L1649.35,657.514L1631.85,657.514Z" style="fill:white;"/>
                </g>
                <g transform="matrix(1.21614,0,0,1.21614,-1069.47,-159.069)">
                    <path d="M1631.85,657.514L1631.85,631.472L1611.85,631.472L1611.85,657.514L1594.35,657.514L1594.35,674.806L1611.85,674.806L1611.85,717.943C1611.85,722.717 1613.74,727.295 1617.12,730.671C1620.49,734.047 1625.07,735.943 1629.85,735.943C1639.46,735.943 1649.35,735.943 1649.35,735.943L1649.35,715.943L1637.85,715.943C1636.26,715.943 1634.73,715.311 1633.6,714.186C1632.48,713.061 1631.85,711.534 1631.85,709.943L1631.85,674.806L1649.35,674.806L1649.35,657.514L1631.85,657.514Z" style="fill:white;"/>
                </g>
                <g transform="matrix(1.19048,0,0,1.19048,-1374.86,-140.182)">
                    <path d="M1750.63,701C1752.63,712.567 1761.49,721.297 1772.1,721.297C1779.36,721.297 1785.79,717.22 1789.77,710.948L1809.12,710.948C1803.21,725.594 1788.86,735.943 1772.1,735.943C1750.09,735.943 1732.21,718.068 1732.21,696.052C1732.21,674.035 1750.09,656.16 1772.1,656.16C1794.12,656.16 1812,674.035 1812,696.052C1812,697.727 1811.89,699.378 1811.69,701L1750.63,701ZM1792.08,685.707L1752.13,685.707C1755.56,676.926 1763.22,670.806 1772.1,670.806C1780.99,670.806 1788.65,676.926 1792.08,685.707Z" style="fill:white;"/>
                </g>
                <g transform="matrix(1.27219,0,0,1.27219,-1352.07,-5.67349)">
                    <path d="M1563.69,549.509C1556.86,568.972 1538.32,582.943 1516.55,582.943C1488.99,582.943 1466.61,560.568 1466.61,533.009C1466.61,505.449 1488.99,483.075 1516.55,483.075C1538.32,483.075 1556.86,497.046 1563.69,516.509L1542.17,516.509C1536.93,507.261 1527.41,501.075 1516.55,501.075C1500.03,501.075 1486.61,515.384 1486.61,533.009C1486.61,550.634 1500.03,564.943 1516.55,564.943C1527.41,564.943 1536.93,558.757 1542.17,549.509L1563.69,549.509Z" style="fill:white;"/>
                </g>
                <g transform="matrix(1.21614,0,0,1.21614,-1214.26,-159.069)">
                    <path d="M1798.74,735.525L1779.21,735.525L1779.21,657.843L1798.74,657.843L1798.74,671.397C1798.74,661.15 1807.05,657.843 1817.29,657.843L1827.45,657.843L1827.45,677.08L1818.77,677.08C1813.19,677.08 1807.84,679.295 1803.9,683.238C1803.9,683.239 1803.9,683.239 1803.9,683.24C1800.6,686.542 1798.74,691.02 1798.74,695.689C1798.74,706.497 1798.74,735.525 1798.74,735.525Z" style="fill:white;fill-rule:nonzero;"/>
                </g>
            </g>
        </g>
    </g>
</svg>
