<?xml version="1.0" encoding="UTF-8" standalone="no"?>
<!DOCTYPE svg PUBLIC "-//W3C//DTD SVG 1.1//EN" "http://www.w3.org/Graphics/SVG/1.1/DTD/svg11.dtd">
<svg width="100%" height="100%" viewBox="0 0 272 272" version="1.1" xmlns="http://www.w3.org/2000/svg" xmlns:xlink="http://www.w3.org/1999/xlink" xml:space="preserve" xmlns:serif="http://www.serif.com/" style="fill-rule:evenodd;clip-rule:evenodd;stroke-linejoin:round;stroke-miterlimit:2;">
    <g transform="matrix(1,0,0,1,-5381.97,-3829.04)">
        <g transform="matrix(1.02411,0,0,1.55175,44.1141,-1914.83)">
            <g transform="matrix(0.976461,0,0,0.644435,510.071,1117.96)">
                <path d="M4951.45,4266.73L5006.67,4211.51L5013.8,4218.65L4951.45,4281C4951.45,4281 4889.1,4218.65 4889.1,4218.65L4896.24,4211.51L4951.45,4266.73ZM4951.45,4039.55C4951.45,4039.55 4902.77,4088.24 4902.77,4088.24L4920.56,4106.03L4912.45,4114.14L4894.65,4096.35C4894.65,4096.35 4845.97,4145.03 4845.97,4145.03L4894.65,4193.72L4912.45,4175.93L4920.56,4184.04L4902.77,4201.83C4902.77,4201.83 4951.45,4250.52 4951.45,4250.52L5000.14,4201.83L4982.34,4184.04L4990.46,4175.93L5008.25,4193.72L5056.94,4145.03C5056.94,4145.03 5008.25,4096.35 5008.25,4096.35L4990.46,4114.14L4982.34,4106.03L5000.14,4088.24L4951.45,4039.55ZM4919.76,4201.83L4951.45,4233.53L4983.15,4201.83L4951.45,4170.14L4919.76,4201.83ZM4934.77,4201.83L4951.45,4218.51L4968.13,4201.83L4951.45,4185.15L4934.77,4201.83ZM4877.84,4082.68L4884.97,4089.82L4829.76,4145.03L4884.97,4200.25L4877.84,4207.39C4877.84,4207.39 4815.49,4145.03 4815.49,4145.03L4877.84,4082.68ZM5025.07,4207.39L5017.93,4200.25L5073.15,4145.03L5017.93,4089.82L5025.07,4082.68L5087.42,4145.03L5025.07,4207.39ZM4862.96,4145.03L4894.65,4176.73L4926.35,4145.03L4894.65,4113.34L4862.96,4145.03ZM4976.55,4145.03L5008.25,4176.73L5039.95,4145.03L5008.25,4113.34L4976.55,4145.03ZM4951.45,4136.92C4951.45,4136.92 4933.66,4119.13 4933.66,4119.13L4925.55,4127.24L4943.34,4145.03L4925.55,4162.83L4933.66,4170.94L4951.45,4153.15L4969.25,4170.94L4977.36,4162.83L4959.57,4145.03L4977.36,4127.24L4969.25,4119.13L4951.45,4136.92ZM5008.25,4161.72L5024.93,4145.03L5008.25,4128.36L4991.57,4145.03L5008.25,4161.72ZM4894.65,4161.72L4911.34,4145.03L4894.65,4128.36L4877.97,4145.03L4894.65,4161.72ZM4951.45,4056.54L4919.76,4088.24L4951.45,4119.93L4983.15,4088.24L4951.45,4056.54ZM4934.77,4088.24L4951.45,4104.92L4968.13,4088.24L4951.45,4071.56L4934.77,4088.24ZM4896.24,4078.56L4889.1,4071.42L4951.45,4009.07C4951.45,4009.07 5013.8,4071.42 5013.8,4071.42L5006.67,4078.56L4951.45,4023.34L4896.24,4078.56Z" style="fill:white;"/>
            </g>
        </g>
    </g>
</svg>
