<?xml version="1.0" encoding="UTF-8" standalone="no"?>
<!DOCTYPE svg PUBLIC "-//W3C//DTD SVG 1.1//EN" "http://www.w3.org/Graphics/SVG/1.1/DTD/svg11.dtd">
<svg width="100%" height="100%" viewBox="0 0 356 356" version="1.1" xmlns="http://www.w3.org/2000/svg" xmlns:xlink="http://www.w3.org/1999/xlink" xml:space="preserve" xmlns:serif="http://www.serif.com/" style="fill-rule:evenodd;clip-rule:evenodd;stroke-linejoin:round;stroke-miterlimit:2;">
    <g transform="matrix(1,0,0,1,-2575.4,-3107.99)">
        <g transform="matrix(1,0,0,1,776.156,2782.8)">
            <g transform="matrix(20.4242,0,0,20.4242,1977.15,503.099)">
                <g transform="matrix(1,0,0,1,-8.7105,-8.7105)">
                    <clipPath id="_clip1">
                        <rect x="0" y="0" width="17.421" height="17.421"/>
                    </clipPath>
                    <g clip-path="url(#_clip1)">
                        <path id="Path_149" d="M8.71,17.421C13.488,17.421 17.42,13.489 17.42,8.711C17.42,3.933 13.488,0.001 8.71,0.001C3.932,0.001 0.001,3.932 0,8.71C-0,8.717 -0,8.725 -0,8.732C-0,13.499 3.922,17.421 8.689,17.421C8.696,17.421 8.703,17.421 8.71,17.421Z" style="fill:rgb(39,117,202);fill-rule:nonzero;"/>
                        <g id="Path_150" transform="matrix(1,0,0,1,-710.428,-503.902)">
                            <path d="M721.533,513.992C721.533,512.722 720.771,512.286 719.247,512.105C718.158,511.96 717.941,511.669 717.941,511.161C717.941,510.653 718.304,510.326 719.03,510.326C719.562,510.241 720.08,510.57 720.23,511.088C720.268,511.195 720.37,511.268 720.484,511.269L721.065,511.269C721.067,511.269 721.069,511.269 721.071,511.269C721.207,511.269 721.319,511.157 721.319,511.021C721.319,511.019 721.319,511.017 721.319,511.015L721.319,510.979C721.175,510.173 720.502,509.56 719.686,509.491L719.686,508.62C719.686,508.475 719.577,508.366 719.396,508.33L718.852,508.33C718.707,508.33 718.598,508.439 718.562,508.62L718.562,509.455C717.601,509.492 716.821,510.272 716.784,511.233C716.784,512.433 717.51,512.902 719.034,513.084C720.05,513.266 720.377,513.484 720.377,514.064C720.377,514.644 719.869,515.044 719.177,515.044C718.233,515.044 717.907,514.644 717.798,514.1C717.776,513.977 717.669,513.885 717.544,513.882L716.927,513.882C716.925,513.882 716.923,513.882 716.921,513.882C716.785,513.882 716.673,513.994 716.673,514.13C716.673,514.132 716.673,514.134 716.673,514.136L716.673,514.172C716.809,515.137 717.623,515.874 718.596,515.914L718.596,516.785C718.596,516.93 718.705,517.039 718.886,517.075L719.43,517.075C719.575,517.075 719.684,516.966 719.72,516.785L719.72,515.914C720.719,515.826 721.504,514.995 721.533,513.992Z" style="fill:white;fill-rule:nonzero;"/>
                        </g>
                        <g id="Path_151" transform="matrix(1,0,0,1,-245.806,-289.129)">
                            <path d="M252.665,303.03C250.529,302.248 249.101,300.204 249.101,297.93C249.101,295.656 250.529,293.612 252.665,292.83C252.807,292.768 252.895,292.622 252.883,292.467L252.883,291.959C252.893,291.822 252.799,291.697 252.665,291.669C252.614,291.664 252.563,291.676 252.52,291.705C249.816,292.564 247.966,295.092 247.966,297.93C247.966,300.767 249.816,303.295 252.52,304.154C252.554,304.174 252.592,304.184 252.631,304.184C252.735,304.184 252.825,304.111 252.847,304.009C252.883,303.973 252.883,303.936 252.883,303.864L252.883,303.356C252.86,303.221 252.78,303.103 252.665,303.03ZM256.512,291.707C256.478,291.687 256.44,291.677 256.401,291.677C256.297,291.677 256.207,291.75 256.185,291.852C256.149,291.888 256.149,291.925 256.149,291.997L256.149,292.505C256.162,292.653 256.242,292.787 256.367,292.868C258.503,293.65 259.931,295.694 259.931,297.968C259.931,300.242 258.503,302.286 256.367,303.068C256.225,303.13 256.137,303.276 256.149,303.431L256.149,303.939C256.139,304.076 256.233,304.201 256.367,304.229C256.418,304.234 256.469,304.222 256.512,304.193C259.214,303.322 261.058,300.79 261.058,297.95C261.058,295.111 259.214,292.579 256.512,291.708L256.512,291.707Z" style="fill:white;fill-rule:nonzero;"/>
                        </g>
                    </g>
                </g>
            </g>
        </g>
    </g>
</svg>
